<svg id="Calque_1" data-name="Calque 1" xmlns="http://www.w3.org/2000/svg" xmlns:xlink="http://www.w3.org/1999/xlink" viewBox="0 0 595.07 200.16"><defs><style>.cls-1{fill:url(#linear-gradient);}.cls-2{fill:url(#linear-gradient-2);}.cls-3{fill:url(#linear-gradient-3);}.cls-4{fill:url(#linear-gradient-4);}.cls-5{fill:url(#linear-gradient-5);}.cls-6{fill:url(#linear-gradient-6);}.cls-7{fill:url(#linear-gradient-7);}.cls-8{fill:url(#linear-gradient-8);}.cls-9{fill:url(#linear-gradient-9);}.cls-10{fill:url(#linear-gradient-10);}</style><linearGradient id="linear-gradient" x1="-247.01" y1="474.69" x2="671.78" y2="-406.01" gradientUnits="userSpaceOnUse"><stop offset="0" stop-color="#fff"/><stop offset="0.23" stop-color="#fff"/><stop offset="0.41" stop-color="#c6c6c6"/><stop offset="0.59" stop-color="#ebebeb"/><stop offset="0.77" stop-color="#fff"/><stop offset="1" stop-color="#dcdcdc"/></linearGradient><linearGradient id="linear-gradient-2" x1="-197.44" y1="526.4" x2="721.35" y2="-354.3" xlink:href="#linear-gradient"/><linearGradient id="linear-gradient-3" x1="-207.03" y1="516.4" x2="711.77" y2="-364.3" xlink:href="#linear-gradient"/><linearGradient id="linear-gradient-4" x1="-170.41" y1="554.61" x2="748.39" y2="-326.09" xlink:href="#linear-gradient"/><linearGradient id="linear-gradient-5" x1="-249.3" y1="472.3" x2="669.49" y2="-408.4" xlink:href="#linear-gradient"/><linearGradient id="linear-gradient-6" x1="-136.36" y1="590.13" x2="782.44" y2="-290.57" xlink:href="#linear-gradient"/><linearGradient id="linear-gradient-7" x1="-108.72" y1="618.96" x2="810.08" y2="-261.74" xlink:href="#linear-gradient"/><linearGradient id="linear-gradient-8" x1="-123.15" y1="603.69" x2="795.65" y2="-277.01" xlink:href="#linear-gradient"/><linearGradient id="linear-gradient-9" x1="-137.67" y1="588.76" x2="781.12" y2="-291.94" xlink:href="#linear-gradient"/><linearGradient id="linear-gradient-10" x1="-271.08" y1="449.58" x2="647.72" y2="-431.12" xlink:href="#linear-gradient"/></defs><polygon class="cls-1" points="170.94 54.8 178.62 62.47 189.8 73.65 192 71.45 195.04 68.42 195.96 67.5 199.35 64.11 208.17 55.29 208.17 97.61 224.79 97.61 224.79 14.83 221.16 18.8 189.81 50.15 174.27 34.61 158.46 18.8 158.3 18.8 154.32 14.83 154.32 18.8 154.32 38.18 154.32 97.61 170.94 97.61 170.94 54.8"/><polygon class="cls-2" points="295.96 64.19 295.96 47.57 249.64 47.57 233.02 47.46 233.02 80.99 233.01 84.11 233.01 97.61 319.09 97.61 319.09 80.99 249.64 80.99 249.64 64.19 295.96 64.19"/><polygon class="cls-3" points="345.16 35.99 372.65 35.99 372.65 19.37 302.93 19.37 302.93 19.36 233.02 19.36 233.01 22.48 233.01 35.98 302.17 35.98 302.17 35.99 328.54 35.99 328.54 35.99 345.16 35.99 345.16 35.99"/><rect class="cls-4" x="326.75" y="42.6" width="16.62" height="55.01"/><polygon class="cls-5" points="162.93 107.28 162.93 107.1 79.83 107.1 79.83 107.28 79.83 110.81 79.83 126.87 162.93 126.87 162.93 107.28"/><polygon class="cls-6" points="279.79 160.41 334.87 160.41 334.87 140.65 279.79 140.65 260.02 140.52 260.02 180.39 260.02 184.1 260.02 200.16 343.17 200.16 343.17 180.39 279.79 180.39 279.79 160.41"/><polygon class="cls-7" points="350.23 200.03 370 200.03 370 158.86 350.23 139.09 350.23 200.03"/><path class="cls-8" d="M566.58,143.73H539.86a8.45,8.45,0,0,1,0-16.9h30.93a7.59,7.59,0,0,1,5.13,7.18h19.36a26.9,26.9,0,0,0-23.72-26.73H536.48a28.32,28.32,0,0,0-21.13,14,28.63,28.63,0,0,0-2.56,6.07,46.35,46.35,0,0,0-34.63-20.07l-.24,0-52.08-.11-19.62,0v.18h-.14v49.89l-49.89-49.89H208.85a47.79,47.79,0,0,0-33.37,13.39,46.1,46.1,0,0,0-12.23,20H99.76L80,140.52v59.64h83.15V180.39H99.76v-20h40.82l.09.18h21.2a45.7,45.7,0,0,0,13.61,26.18,47.79,47.79,0,0,0,33.37,13.39h40.68V160.6h0V140.82H184.29A28.1,28.1,0,0,1,204.77,127h44.6v-.17h98.45l22.39,22.38,13.53,13.53,23.42,23.42,14,14h4.72V126.91h49.78a26.9,26.9,0,0,1,25.66,26.89,27.93,27.93,0,0,1-.57,5.54,27,27,0,0,1-22.21,21H456.27v-39.7H436.5v59.47h43.33l.22,0a46.69,46.69,0,0,0,40.49-39.49,43.53,43.53,0,0,0,.41-4.45,28.26,28.26,0,0,0,18.91,7.3h26.72a8.45,8.45,0,0,1,0,16.9h-12.5a7.59,7.59,0,0,1-5.13-7.18H529.6a26.93,26.93,0,0,0,26.94,26.95h10a28.22,28.22,0,1,0,0-56.43ZM229.77,160.59v19.8h-25a27.76,27.76,0,0,1-23-19.8Z" transform="translate(-0.21)"/><polygon class="cls-9" points="406.01 97.61 425.64 97.61 425.64 77.98 425.64 4.73 425.64 0 406.95 18.68 383.53 42.1 370 55.63 350.24 75.39 350.23 78.02 350.23 87.18 350.24 96.06 350.24 97.61 355.99 97.61 405.87 47.72 405.87 97.61 406.01 97.61"/><polygon class="cls-10" points="19.77 108.35 0 108.35 0 200.16 74.06 200.16 74.06 180.39 19.77 180.39 19.77 108.35"/></svg>
