<svg width="101" height="100" viewBox="0 0 101 100" fill="none" xmlns="http://www.w3.org/2000/svg">
<path d="M100.798 49.8942L100.596 49.7692C100.51 30.5 89.4522 13.7788 73.3753 5.50962V5.40385L73.2792 5.46154C66.4715 1.98077 58.7599 0 50.6061 0C23.1445 0 0.788763 22.2596 0.615686 49.6731L0.269531 49.8846L0.606061 50.0865C0.654138 77.6154 23.0676 100 50.6061 100C78.1734 100 100.606 77.5673 100.606 50L100.798 49.8942ZM100 49.4038L82.4618 38.7308H82.5387L73.2311 23.2788L73.3753 6.18269C89.0195 14.3462 99.7695 30.625 100 49.4038ZM72.7118 93.2019L51.1734 80.0962L72.4907 67.125L72.7118 93.2019ZM50.683 79.7981L28.6637 66.3942L28.7984 49.8942L28.7022 38.6538L37.7695 38.7308L32.9714 30.7692L39.7791 26.625L50.6061 26.5385L61.5772 26.6346L68.1061 30.6058L63.2118 38.7404L72.4426 38.6635L72.3465 49.9038L72.4811 66.5288L50.683 79.7981ZM28.6542 67.1635L50.0484 80.1827L28.433 93.3365L28.6542 67.1635ZM72.5676 23.1923L68.3657 30.1635L62.5676 26.6346L63.1445 26.6442L56.8753 16.2308L72.7118 6.59615L72.5676 23.1923ZM38.5003 26.6346L32.6349 30.2019L28.5772 23.4615L28.433 6.46154L44.3849 16.1635L38.0772 26.6442L38.5003 26.6346ZM28.1061 38.6538H28.183L28.2791 49.8942L28.1445 66.0865L1.53875 49.8942L19.9041 38.7212L28.1061 38.6538ZM73.0099 49.8942L73.1061 38.6538L81.4715 38.7212L99.8272 49.8942L73.1541 66.125L73.0099 49.8942ZM72.6926 5.83654L56.5388 15.6635L50.6157 5.81731L44.6541 15.7212L28.4618 5.86538C35.1349 2.5 42.6541 0.596154 50.6157 0.596154C58.5388 0.605769 66.0387 2.5 72.6926 5.83654ZM27.9234 6.14423L28.058 22.7788L18.4522 38.7404H18.6253L1.23106 49.3269C1.48106 30.5481 12.2599 14.2788 27.9234 6.14423ZM1.22146 50.4712L28.1445 66.8558L27.9234 93.875C12.1926 85.7019 1.39454 69.3365 1.22146 50.4712ZM28.2503 94.0385L50.5387 80.4712L72.8945 94.0769C66.1926 97.4808 58.6253 99.4135 50.6061 99.4135C42.558 99.4135 34.9714 97.4712 28.2503 94.0385ZM73.3753 93.8365L73.1445 66.7212L100 50.3846C99.8657 69.2596 89.0868 85.6442 73.3753 93.8365Z" fill="white"/>
</svg>
