<svg width="97" height="100" viewBox="0 0 97 100" fill="none" xmlns="http://www.w3.org/2000/svg">
<path d="M32.3777 52.2627C29.0514 52.2627 25.7751 51.7111 22.6243 50.6246L22.2983 50.516L48.4914 12.4717L61.0363 30.6998L61.0029 30.8169C57.3171 43.437 45.5411 52.2627 32.3777 52.2627ZM23.1258 50.2318C26.1178 51.2264 29.2269 51.7278 32.3777 51.7278C45.2737 51.7278 56.8073 43.1194 60.468 30.7751L48.4914 13.3827L23.1258 50.2318Z" fill="white"/>
<path d="M96.9829 82.901L48.4914 82.5417L0 82.901L19.4902 54.5935L19.7158 54.7941C25.5746 60.0093 33.1216 62.876 40.9695 62.876C53.3556 62.876 64.7472 55.6131 69.9791 44.372L70.1713 43.9541L96.9829 82.901ZM48.4914 82.0151L95.9799 82.3661L70.2549 44.9988C64.8475 56.1898 53.4058 63.3941 40.9611 63.3941C33.0882 63.3941 25.5077 60.5442 19.5821 55.3707L1.00293 82.3661L48.4914 82.0151Z" fill="white"/>
<path d="M60.443 82.4736C50.7146 83.4013 49.9708 84.4293 49.4025 99.9496C49.4025 100.016 49.3022 100.016 49.2938 99.9496C48.7255 84.4293 47.9816 83.4013 38.2533 82.4736C38.1864 82.4653 38.1864 82.3733 38.2533 82.365C47.9816 81.4373 48.7255 80.4093 49.2938 64.889C49.2938 64.8222 49.3941 64.8222 49.4025 64.889C49.9708 80.4093 50.7146 81.4373 60.443 82.365C60.5015 82.3733 60.5015 82.4653 60.443 82.4736Z" fill="white"/>
<path d="M66.8034 68.9183C61.2706 69.4449 60.8443 70.0299 60.5184 78.864C60.5184 78.9058 60.4598 78.9058 60.4598 78.864C60.1339 70.0299 59.716 69.4449 54.1749 68.9183C54.1414 68.9183 54.1414 68.8598 54.1749 68.8598C59.7077 68.3333 60.1339 67.7483 60.4598 58.9142C60.4598 58.8724 60.5184 58.8724 60.5184 58.9142C60.8443 67.7483 61.2622 68.3333 66.8034 68.8598C66.8368 68.8682 66.8368 68.9183 66.8034 68.9183Z" fill="white"/>
<path d="M42.5075 69.2103C39.1309 69.5362 38.8718 69.8872 38.6713 75.278C38.6713 75.303 38.6378 75.303 38.6378 75.278C38.4372 69.8872 38.1782 69.5362 34.8016 69.2103C34.7766 69.2103 34.7766 69.1768 34.8016 69.1768C38.1782 68.8509 38.4372 68.4999 38.6378 63.1091C38.6378 63.0841 38.6713 63.0841 38.6713 63.1091C38.8718 68.4999 39.1309 68.8509 42.5075 69.1768C42.5242 69.1768 42.5242 69.2103 42.5075 69.2103Z" fill="white"/>
<path d="M40.9614 63.3932C27.5891 63.3932 15.7379 55.3782 10.765 42.967L10.2635 41.705L11.1996 42.6828C16.7826 48.5165 24.3045 51.7259 32.3697 51.7259C48.5335 51.7259 61.6802 38.5792 61.6802 22.4154C61.6802 14.2833 58.2535 6.44379 52.2778 0.91099L51.2915 0L52.5536 0.484747C65.0734 5.26536 73.4813 17.476 73.4813 30.8734C73.4813 48.809 58.8971 63.3932 40.9614 63.3932ZM11.7847 44.0117C16.9497 55.5119 28.2661 62.8751 40.9698 62.8751C58.6129 62.8751 72.9631 48.5249 72.9631 30.8817C72.9631 18.1446 65.2406 6.5023 53.615 1.48767C59.0977 7.04555 62.2067 14.6093 62.2067 22.4321C62.2067 38.8801 48.826 52.2608 32.3781 52.2608C24.6137 52.2608 17.3509 49.3356 11.7847 44.0117Z" fill="white"/>
</svg>
