<svg width="104" height="90" viewBox="0 0 104 90" fill="none" xmlns="http://www.w3.org/2000/svg">
<path d="M67.5959 15.3391C73.9169 15.9402 74.4016 16.6091 74.77 26.7014C74.77 26.7499 74.8379 26.7499 74.8379 26.7014C75.2063 16.6188 75.6911 15.9499 82.0121 15.3391C82.0509 15.3391 82.0509 15.2712 82.0121 15.2712C75.6911 14.6702 75.2063 14.0012 74.8379 3.90891C74.8379 3.86044 74.77 3.86044 74.77 3.90891C74.4016 13.9915 73.9169 14.6702 67.5959 15.2712C67.5571 15.2712 67.5571 15.3294 67.5959 15.3391Z" fill="white"/>
<path d="M82.0321 12.9935C82.0321 13.0226 82.0709 13.0226 82.0709 12.9935C82.2842 7.25414 82.5556 6.87604 86.1523 6.52703C86.1717 6.52703 86.1717 6.48825 86.1523 6.48825C82.5556 6.14893 82.2842 5.76114 82.0709 0.0218133C82.0709 -0.00727111 82.0321 -0.00727111 82.0321 0.0218133C81.8188 5.76114 81.5474 6.13924 77.9506 6.48825C77.9312 6.48825 77.9312 6.52703 77.9506 6.52703C81.5474 6.87604 81.8188 7.25414 82.0321 12.9935Z" fill="white"/>
<path d="M67.8473 10.657C67.8473 10.6763 67.8667 10.6763 67.8667 10.657C67.9927 7.15713 68.1672 6.92445 70.3583 6.71116C70.368 6.71116 70.368 6.69177 70.3583 6.69177C68.1672 6.47849 67.9927 6.24581 67.8667 2.74599C67.8667 2.7266 67.8473 2.7266 67.8473 2.74599C67.7213 6.24581 67.5467 6.47849 65.3557 6.69177C65.346 6.69177 65.346 6.71116 65.3557 6.71116C67.5564 6.92445 67.7213 7.15713 67.8473 10.657Z" fill="white"/>
<path d="M23.1833 15.3391C29.5043 15.9402 29.9891 16.6091 30.3575 26.7014C30.3575 26.7499 30.4254 26.7499 30.4254 26.7014C30.7938 16.6188 31.2785 15.9499 37.5996 15.3391C37.6383 15.3391 37.6383 15.2712 37.5996 15.2712C31.2785 14.6702 30.7938 14.0012 30.4254 3.90891C30.4254 3.86044 30.3575 3.86044 30.3575 3.90891C29.9891 13.9915 29.5043 14.6702 23.1833 15.2712C23.1445 15.2712 23.1445 15.3294 23.1833 15.3391Z" fill="white"/>
<path d="M37.6195 12.9935C37.6195 13.0226 37.6583 13.0226 37.6583 12.9935C37.8716 7.25414 38.143 6.87604 41.7398 6.52703C41.7592 6.52703 41.7592 6.48825 41.7398 6.48825C38.143 6.14893 37.8716 5.76114 37.6583 0.0218133C37.6583 -0.00727111 37.6195 -0.00727111 37.6195 0.0218133C37.4062 5.76114 37.1348 6.13924 33.538 6.48825C33.5187 6.48825 33.5187 6.52703 33.538 6.52703C37.1348 6.87604 37.4062 7.25414 37.6195 12.9935Z" fill="white"/>
<path d="M23.4356 10.657C23.4356 10.6763 23.455 10.6763 23.455 10.657C23.5811 7.15713 23.7556 6.92445 25.9466 6.71116C25.9563 6.71116 25.9563 6.69177 25.9466 6.69177C23.7556 6.47849 23.5811 6.24581 23.455 2.74599C23.455 2.7266 23.4356 2.7266 23.4356 2.74599C23.3096 6.24581 23.1351 6.47849 20.944 6.69177C20.9343 6.69177 20.9343 6.71116 20.944 6.71116C23.1448 6.92445 23.3096 7.15713 23.4356 10.657Z" fill="white"/>
<path d="M103.893 2.94092L95.8854 3.00878L73.8782 39.5582L52.0067 3.24146L30.1352 39.5582L8.20555 3.1542L8.11827 3.01848L0.110352 2.95061L26.1409 46.1798L0.624205 88.5558L7.95348 88.4976L29.7861 52.239L36.2817 63.0293L20.0332 90.0003L51.9194 89.7288L83.8153 90.0003L67.6347 63.136L74.1981 52.239L96.0308 88.4976L103.36 88.5558L77.8433 46.1798L103.893 2.94092ZM96.215 3.58078L102.866 3.52261L77.5234 45.6078L74.2175 40.1108L96.215 3.58078ZM52.0067 15.3406L70.2329 45.6078L63.6695 56.5047L51.9388 37.0279L40.2759 56.3981L33.7805 45.6078L52.0067 15.3406ZM37.0572 63.1651L40.3632 57.6681L51.7546 76.573L51.997 76.9802L63.5629 57.7747L66.8688 63.2717L51.9873 87.9741L37.0572 63.1651ZM52.0067 75.8749L40.7122 57.1155L51.9485 38.4627L63.2429 57.2221L52.0067 75.8749ZM1.138 3.52261L7.78868 3.58078L29.7861 40.1108L26.4802 45.6078L1.138 3.52261ZM30.1255 51.6573L33.4314 46.1604L39.9269 56.9507L36.621 62.4476L30.1255 51.6573ZM36.718 63.7274L51.7546 88.6915L51.9291 88.9726L21.3614 89.2344L36.718 63.7274ZM82.5065 89.2247L52.0842 88.9726L67.2178 63.834L82.5065 89.2247ZM67.3148 62.564L64.0089 57.067L70.5722 46.1701L73.8782 51.667L67.3148 62.564Z" fill="white"/>
</svg>
