<svg width="93" height="100" viewBox="0 0 93 100" fill="none" xmlns="http://www.w3.org/2000/svg">
<path d="M81.1787 68.9401C85.1613 63.5754 87.5411 56.9513 87.5901 49.7874L92.2271 49.7792V48.2744L87.5657 48.2826C87.5166 47.0886 87.4185 45.9028 87.2467 44.7416L90.2072 32.9326L90.3053 32.5319L83.7302 34.1429C81.9801 30.8881 79.6985 27.9604 76.9916 25.4743C78.9379 25.368 80.4917 23.7651 80.4917 21.7861C80.4917 19.7416 78.8316 18.0814 76.7871 18.0814C74.7426 18.0814 73.0825 19.7416 73.0825 21.7861C73.0825 22.0069 73.1071 22.2277 73.148 22.4403C70.3675 20.5675 67.2843 19.1201 63.9886 18.1714L65.5424 3.1894L65.5915 2.74779L50.683 9.91168V7.30291C52.3186 6.91855 53.5453 5.45469 53.5453 3.70461C53.5453 1.66012 51.8853 0 49.8408 0C47.7963 0 46.1362 1.66012 46.1362 3.70461C46.1362 5.52012 47.4528 7.03304 49.1865 7.3438V10.6313L33.2559 18.2859L24.3337 22.3912L21.0953 19.1364C21.5287 18.5312 21.7822 17.7952 21.7822 17.002C21.7822 14.9575 20.1221 13.2973 18.0776 13.2973C16.0331 13.2973 14.373 14.9575 14.373 17.002C14.373 19.0464 16.0331 20.7066 18.0776 20.7066C18.7809 20.7066 19.4351 20.5021 19.9912 20.1586L22.8781 23.0536L0.650391 33.2761L22.4037 47.8165C22.371 48.3808 22.3547 48.9532 22.3547 49.5339C22.3547 56.8449 24.7753 63.6081 28.8561 69.0546L20.1057 77.805C19.5251 77.4207 18.83 77.1917 18.0776 77.1917C16.0331 77.1917 14.373 78.8518 14.373 80.8963C14.373 82.9408 16.0331 84.6009 18.0776 84.6009C20.1221 84.6009 21.7822 82.9408 21.7822 80.8963C21.7822 80.1439 21.5532 79.4488 21.1688 78.86L29.7884 70.2404C34.6053 76.0958 41.4256 80.2339 49.1783 81.6323V90.5545C47.4528 90.8652 46.128 92.3781 46.128 94.1936C46.128 96.2381 47.7881 97.8983 49.8326 97.8983C51.8771 97.8983 53.5371 96.2381 53.5371 94.1936C53.5371 92.4436 52.3105 90.9797 50.6749 90.5954V81.8695C52.0815 82.0576 53.5126 82.1639 54.9683 82.1639C55.279 82.1639 55.5898 82.1475 55.9088 82.1394L73.3932 100L81.1787 68.9401ZM76.7953 19.5944C78.0138 19.5944 78.9951 20.5839 78.9951 21.7942C78.9951 23.0128 78.0056 23.9941 76.7953 23.9941C75.5768 23.9941 74.5954 23.0046 74.5954 21.7942C74.5872 20.5839 75.5768 19.5944 76.7953 19.5944ZM47.6245 3.70461C47.6245 2.4861 48.6141 1.50474 49.8244 1.50474C51.0429 1.50474 52.0242 2.49428 52.0242 3.70461C52.0242 4.91495 51.0348 5.90448 49.8244 5.90448C48.6141 5.90448 47.6245 4.92313 47.6245 3.70461ZM15.8614 17.002C15.8614 15.7834 16.8509 14.8021 18.0612 14.8021C19.2797 14.8021 20.2611 15.7916 20.2611 17.002C20.2611 18.2123 19.2716 19.2018 18.0612 19.2018C16.8509 19.2018 15.8614 18.2123 15.8614 17.002ZM18.0694 83.0962C16.8509 83.0962 15.8695 82.1066 15.8695 80.8963C15.8695 79.686 16.8591 78.6964 18.0694 78.6964C19.2879 78.6964 20.2693 79.686 20.2693 80.8963C20.2693 82.1066 19.2798 83.0962 18.0694 83.0962ZM52.0324 94.1936C52.0324 95.4122 51.0429 96.3935 49.8326 96.3935C48.6141 96.3935 47.6327 95.404 47.6327 94.1936C47.6327 92.9751 48.6223 91.9938 49.8326 91.9938C51.0429 91.9856 52.0324 92.9751 52.0324 94.1936ZM81.4322 67.9097L85.9791 49.7955H87.2058C87.1486 56.5178 85.0223 62.7576 81.4322 67.9097ZM22.8044 47.4975C23.2215 40.8407 25.6749 34.7236 29.5349 29.7596L43.6991 43.9892L25.8303 48.3808H24.1293L22.8044 47.4975ZM60.3821 48.3317L56.4649 48.3399L54.6657 45.3549L59.368 40.6608L61.2244 40.2028L60.3821 48.3317ZM61.7397 40.072L83.583 34.7072C85.145 37.7085 86.2572 40.9879 86.8051 44.4472L85.8401 48.2908L60.8892 48.3235L61.7397 40.072ZM62.3857 59.4864C63.6043 59.4864 64.5856 60.476 64.5856 61.6863C64.5856 62.8966 63.5961 63.8862 62.3857 63.8862C61.1672 63.8862 60.1858 62.8966 60.1858 61.6863C60.1858 60.476 61.1754 59.4864 62.3857 59.4864ZM58.8856 62.8557L58.0432 71.0582L50.6749 66.1351V60.2388L54.1424 54.4815L59.2291 59.5927L59.2045 59.8381C58.8856 60.386 58.6893 61.0157 58.6893 61.6945C58.6811 62.0952 58.7629 62.4877 58.8856 62.8557ZM52.8094 42.2637L56.5549 41.3477L53.8725 44.0301L52.8094 42.2637ZM45.0076 45.3059L43.1676 48.3562L27.9402 48.3808L44.108 44.4063L45.0076 45.3059ZM42.7259 49.8528L44.7214 53.173L39.3402 58.5541L26.37 49.8773L42.7259 49.8528ZM45.5228 54.4979L49.1701 60.5577V65.121L40.616 59.4046L45.5228 54.4979ZM54.9356 53.1485L56.931 49.8283L60.2268 49.8201L59.4171 57.6464L54.9356 53.1485ZM60.055 39.9738L61.3881 38.6408L61.2817 39.6712L60.055 39.9738ZM57.2336 40.6608L52.5395 41.8139L50.6749 38.7144V17.5908C52.0815 17.4027 53.5126 17.2964 54.9683 17.2964C57.9042 17.2964 60.7501 17.6971 63.4652 18.4413L61.6251 36.2774L57.2336 40.6608ZM49.1701 38.3955L46.1689 43.384L45.4083 43.5721L30.4999 28.5901C35.2186 23.0782 41.7609 19.1855 49.1783 17.8279V38.3955H49.1701ZM25.4705 49.8773L38.9804 58.9058L36.1917 61.6945L24.2356 49.8773H25.4705ZM40.2562 59.7645L49.1701 65.7262V74.542L48.6386 74.0023L37.2631 62.7576L40.2562 59.7645ZM50.6749 66.7321L58.4603 71.9333L59.3026 63.7308C59.9651 64.7285 61.1018 65.3909 62.3857 65.3909C64.4302 65.3909 66.0904 63.7308 66.0904 61.6863C66.0904 59.6418 64.4302 57.9817 62.3857 57.9817C61.6334 57.9817 60.9383 58.2107 60.3576 58.595L59.8832 58.1125L60.7338 49.8283L85.4639 49.7955L80.6471 68.9974C74.9879 76.4393 66.1803 81.3543 56.2195 81.7386L50.6749 76.0713V66.7321ZM87.1731 48.2908H86.3553L86.985 45.7883C87.0831 46.6143 87.1485 47.4485 87.1731 48.2908ZM89.6183 33.2188L87.0341 43.5231C86.4453 40.3664 85.3985 37.3732 83.9674 34.6091L89.6183 33.2188ZM83.3458 34.2493L61.7888 39.5486L61.9359 38.0847L74.988 25.0327C75.4051 25.2699 75.8794 25.4171 76.3782 25.4743C79.1914 27.9604 81.5549 30.929 83.3458 34.2493ZM73.3197 23.0455C73.4505 23.4053 73.6305 23.7406 73.8594 24.0432L62.1895 35.7131L63.9559 18.5803C67.3334 19.5617 70.4901 21.0828 73.3197 23.0455ZM64.9945 3.59012L63.5061 18.0487C60.7829 17.3127 57.9205 16.912 54.9683 16.912C53.5126 16.912 52.0815 17.0183 50.6749 17.2064V10.476L64.9945 3.59012ZM33.4521 18.7357L49.1701 11.1874V17.4354C41.6383 18.7929 35.006 22.7347 30.2137 28.3121L24.6935 22.7674L33.4521 18.7357ZM1.66445 33.3579L23.2461 23.4298L29.265 29.4733C25.3805 34.4455 22.9026 40.5708 22.4364 47.2358L1.66445 33.3579ZM22.7309 49.5339C22.7309 49.0432 22.7472 48.5607 22.7717 48.0782L23.426 48.5116V48.9696L22.7636 49.1331L23.426 49.7874V49.8855H23.5241L35.8401 62.0543L29.1178 68.7766C25.1106 63.3955 22.7309 56.7386 22.7309 49.5339ZM30.0583 69.9624L36.9114 63.1093L48.287 74.3539L49.1701 75.2535V81.2398C41.5238 79.8413 34.8015 75.7442 30.0583 69.9624ZM54.9683 81.7713C53.5126 81.7713 52.0815 81.665 50.6749 81.4769V76.791L55.5408 81.7632C55.3445 81.755 55.1646 81.7713 54.9683 81.7713ZM56.5876 82.1148C66.2131 81.6405 74.7427 76.9791 80.41 69.9215L73.1152 99.0105L56.5876 82.1148Z" fill="white"/>
</svg>
