<svg width="95" height="100" viewBox="0 0 95 100" fill="none" xmlns="http://www.w3.org/2000/svg">
<path d="M94.2959 89.0612L77.2385 60.738C77.5467 59.0098 77.7149 57.2349 77.7149 55.4227C77.7149 48.0523 75.0713 41.2798 70.6902 36.0112C71.4468 36.1046 72.2128 36.1607 72.9975 36.1607C80.863 36.1607 87.5981 31.3031 90.3539 24.4185C87.2338 27.6787 82.8434 29.7057 77.9765 29.7057C68.5136 29.7057 60.8443 22.0364 60.8443 12.5736C60.8443 7.60392 62.9648 3.12938 66.337 0C59.3029 2.68099 54.3053 9.49089 54.3053 17.4685C54.3053 20.738 55.146 23.8113 56.622 26.4923H56.6126L47.3179 11.0603L38.0232 26.4923C25.7952 30.425 16.9209 41.9056 16.9209 55.432C16.9209 57.2443 17.089 59.0191 17.3973 60.7473L0.339844 89.0705L6.96291 89.0145L0.339844 100L47.3085 99.6077L94.2866 100L87.6635 89.0145L94.2959 89.0612ZM93.1376 88.3979L87.2898 88.3512L75.0153 67.9589C75.912 65.9785 76.6126 63.886 77.0703 61.7095L93.1376 88.3979ZM45.8419 25.7356C46.337 25.7076 46.8322 25.6983 47.3272 25.6983C47.8223 25.6983 48.3174 25.7076 48.8125 25.7356L74.2679 68.0056C69.5225 78.1411 59.2282 85.1751 47.3272 85.1751C35.4263 85.1751 25.132 78.1411 20.3865 68.0056L45.8419 25.7356ZM20.0503 67.277C19.1628 65.2499 18.4996 63.1013 18.0886 60.8687L38.4622 27.0341C40.5641 26.3802 42.7686 25.9598 45.0386 25.7823L20.0503 67.277ZM46.2436 25.0631L47.3272 23.2695L48.4108 25.0631C48.0465 25.0537 47.6916 25.035 47.3272 25.035C46.9629 25.035 46.5986 25.0537 46.2436 25.0631ZM49.6066 25.7917C51.8765 25.9692 54.0811 26.3895 56.1829 27.0434L76.5566 60.8781C76.1455 63.1107 75.4823 65.2592 74.5949 67.2863L49.6066 25.7917ZM47.3272 85.829C59.3403 85.829 69.7467 78.823 74.6789 68.6782L86.5238 88.3419L47.3272 88.0149L8.13994 88.3419L19.9849 68.6782C24.9078 78.823 35.3142 85.829 47.3272 85.829ZM77.061 55.432C77.061 56.9453 76.9489 58.4306 76.7247 59.8879L57.1731 27.4264C59.9195 31.7889 64.4221 34.9369 69.6906 35.8711C74.2773 41.1116 77.061 47.9496 77.061 55.432ZM47.3272 12.3307L55.6878 26.212C53.6047 25.6142 51.4375 25.2312 49.1955 25.1004L47.3272 21.9991L45.459 25.1004C43.217 25.2405 41.0498 25.6235 38.9667 26.212L47.3272 12.3307ZM17.5841 55.432C17.5841 42.4755 25.9167 31.4339 37.5094 27.3704L17.9204 59.8879C17.6962 58.44 17.5841 56.9453 17.5841 55.432ZM1.51687 88.3979L17.5841 61.7095C18.0418 63.886 18.7425 65.9785 19.6392 67.9589L7.36459 88.3512L1.51687 88.3979ZM93.1376 99.3368L47.3272 98.9538L1.51687 99.3368L7.73827 89.0051L47.3272 88.6688L86.9162 89.0051L93.1376 99.3368Z" fill="white"/>
<path d="M42.5913 61.0654L38.9949 55.0962L35.3984 61.0654L38.9949 61.0373L42.5913 61.0654Z" fill="white"/>
<path d="M59.2472 61.0654L55.6507 55.0962L52.0543 61.0654L55.6507 61.0373L59.2472 61.0654Z" fill="white"/>
<path d="M52.035 56.5625L47.3642 48.8091L42.7029 56.5625L47.3642 56.5251L52.035 56.5625Z" fill="white"/>
</svg>
