<svg width="101" height="100" viewBox="0 0 101 100" fill="none" xmlns="http://www.w3.org/2000/svg">
<path d="M50.1131 100C36.7573 100 24.2065 94.7992 14.7602 85.3529C-4.73387 65.8588 -4.73387 34.1412 14.7602 14.6471C24.2065 5.20078 36.7573 0 50.1131 0C63.4688 0 76.0197 5.20078 85.466 14.6471C104.96 34.1412 104.96 65.8588 85.466 85.3529C76.0197 94.7992 63.46 100 50.1131 100ZM50.1131 0.972935C37.0138 0.972935 24.7017 6.07642 15.4412 15.337C-3.67258 34.4507 -3.67258 65.5581 15.4412 84.6807C24.7017 93.9413 37.0138 99.0448 50.1131 99.0448C63.2123 99.0448 75.5243 93.9413 84.7849 84.6807C103.899 65.567 103.899 34.4596 84.7849 15.337C75.5243 6.06758 63.2035 0.972935 50.1131 0.972935Z" fill="white"/>
</svg>
